{
  "source": "C:\\Users\\Peter\\Desktop\\stuff\\MIUN\\quantitative_research\\video_compression\\videos\\BVI-HD\\BVI-HD_CDVL_videos\\ORIG\\Fountain_1920x1080_50fps.mp4",
  "output": "C:\\Users\\Peter\\Desktop\\stuff\\MIUN\\quantitative_research\\video_compression\\compressed_videos\\BVI-HD\\vp9\\2.5\\Fountain_1920x1080_50fps_vp9.webm",
  "codec": "vp9",
  "ok": "Input #0, mov,mp4,m4a,3gp,3g2,mj2, from 'C:\\Users\\Peter\\Desktop\\stuff\\MIUN\\quantitative_research\\video_compression\\videos\\BVI-HD\\BVI-HD_CDVL_videos\\ORIG\\Fountain_1920x1080_50fps.mp4':\n  Metadata:\n    major_brand     : isom\n    minor_version   : 512\n    compatible_brands: isomiso2avc1mp41\n    encoder         : Lavf54.28.101\n  Duration: 00:00:05.00, start: 0.000000, bitrate: 603457 kb/s\n  Stream #0:0[0x1](und): Video: h264 (High 4:4:4 Predictive) (avc1 / 0x31637661), yuv420p(progressive), 1920x1080, 603453 kb/s, 50 fps, 50 tbr, 50 tbn (default)\n    Metadata:\n      handler_name    : VideoHandler\n      vendor_id       : [0][0][0][0]\n[out#0/webm @ 000001ac64e392c0] Codec AVOption b:a (set bitrate (in bits/s)) has not been used for any stream. The most likely reason is either wrong type (e.g. a video option with no video streams) or that it is a private option of some decoder which was not actually used for any stream.\nStream mapping:\n  Stream #0:0 -> #0:0 (h264 (native) -> vp9 (libvpx-vp9))\nPress [q] to stop, [?] for help\n[libvpx-vp9 @ 000001ac659d0b40] v1.15.2-100-g40561f514\nOutput #0, webm, to 'C:\\Users\\Peter\\Desktop\\stuff\\MIUN\\quantitative_research\\video_compression\\compressed_videos\\BVI-HD\\vp9\\2.5\\Fountain_1920x1080_50fps_vp9.webm':\n  Metadata:\n    major_brand     : isom\n    minor_version   : 512\n    compatible_brands: isomiso2avc1mp41\n    encoder         : Lavf62.3.100\n  Stream #0:0(und): Video: vp9, yuv420p(tv, progressive), 1920x1080, q=2-31, 2500 kb/s, 50 fps, 1k tbn (default)\n    Metadata:\n      encoder         : Lavc62.11.100 libvpx-vp9\n      handler_name    : VideoHandler\n      vendor_id       : [0][0][0][0]\n    Side data:\n      cpb: bitrate max/min/avg: 0/0/0 buffer size: 2500000 vbv_delay: N/A\nframe=    0 fps=0.0 q=0.0 size=       0KiB time=N/A bitrate=N/A speed=N/A elapsed=0:00:01.06    \nframe=    4 fps=2.4 q=62.0 size=       1KiB time=00:00:00.08 bitrate=  63.4kbits/s speed=0.0475x elapsed=0:00:01.68    \nframe=    9 fps=4.1 q=54.0 size=       1KiB time=00:00:00.18 bitrate=  28.2kbits/s speed=0.0817x elapsed=0:00:02.20    \nframe=   12 fps=4.4 q=45.0 size=       1KiB time=00:00:00.24 bitrate=  21.1kbits/s speed=0.0877x elapsed=0:00:02.73    \nframe=   17 fps=5.2 q=54.0 size=       1KiB time=00:00:00.34 bitrate=  14.9kbits/s speed=0.104x elapsed=0:00:03.27    \nframe=   20 fps=5.2 q=54.0 size=       1KiB time=00:00:00.38 bitrate=  13.3kbits/s speed=0.0987x elapsed=0:00:03.85    \nframe=   22 fps=4.9 q=54.0 size=       1KiB time=00:00:00.44 bitrate=  11.5kbits/s speed=0.0982x elapsed=0:00:04.47    \nframe=   23 fps=4.5 q=40.0 size=       1KiB time=00:00:00.46 bitrate=  11.0kbits/s speed=0.0898x elapsed=0:00:05.12    \nframe=   25 fps=4.4 q=54.0 size=       1KiB time=00:00:00.50 bitrate=  10.1kbits/s speed=0.0874x elapsed=0:00:05.72    \nframe=   28 fps=4.4 q=54.0 size=       1KiB time=00:00:00.54 bitrate=   9.4kbits/s speed=0.0858x elapsed=0:00:06.29    \nframe=   31 fps=4.5 q=54.0 size=       1KiB time=00:00:00.62 bitrate=   8.2kbits/s speed=0.0906x elapsed=0:00:06.84    \nframe=   34 fps=4.6 q=46.0 size=       1KiB time=00:00:00.68 bitrate=   7.5kbits/s speed=0.0922x elapsed=0:00:07.37    \nframe=   37 fps=4.7 q=54.0 size=       1KiB time=00:00:00.74 bitrate=   6.9kbits/s speed=0.0936x elapsed=0:00:07.90    \nframe=   39 fps=4.6 q=54.0 size=       1KiB time=00:00:00.78 bitrate=   6.5kbits/s speed=0.092x elapsed=0:00:08.47    \nframe=   42 fps=4.6 q=55.0 size=       1KiB time=00:00:00.84 bitrate=   6.0kbits/s speed=0.0928x elapsed=0:00:09.05    \nframe=   45 fps=4.7 q=55.0 size=       1KiB time=00:00:00.90 bitrate=   5.6kbits/s speed=0.0935x elapsed=0:00:09.62    \nframe=   48 fps=4.7 q=55.0 size=       1KiB time=00:00:00.96 bitrate=   5.3kbits/s speed=0.0944x elapsed=0:00:10.17    \nframe=   50 fps=4.7 q=55.0 size=       1KiB time=00:00:01.00 bitrate=   5.1kbits/s speed=0.0934x elapsed=0:00:10.70    \nframe=   51 fps=4.5 q=56.0 size=       1KiB time=00:00:01.02 bitrate=   5.0kbits/s speed=0.0906x elapsed=0:00:11.25    \nframe=   55 fps=4.7 q=55.0 size=       1KiB time=00:00:01.08 bitrate=   4.7kbits/s speed=0.0914x elapsed=0:00:11.81    \nframe=   57 fps=4.6 q=56.0 size=       1KiB time=00:00:01.14 bitrate=   4.4kbits/s speed=0.092x elapsed=0:00:12.39    \nframe=   60 fps=4.6 q=55.0 size=       1KiB time=00:00:01.20 bitrate=   4.2kbits/s speed=0.0926x elapsed=0:00:12.96    \nframe=   63 fps=4.7 q=55.0 size=       1KiB time=00:00:01.26 bitrate=   4.0kbits/s speed=0.0934x elapsed=0:00:13.49    \nframe=   65 fps=4.6 q=55.0 size=       1KiB time=00:00:01.30 bitrate=   3.9kbits/s speed=0.0926x elapsed=0:00:14.03    \nframe=   67 fps=4.6 q=55.0 size=       1KiB time=00:00:01.34 bitrate=   3.8kbits/s speed=0.0917x elapsed=0:00:14.61    \nframe=   69 fps=4.5 q=55.0 size=       1KiB time=00:00:01.38 bitrate=   3.7kbits/s speed=0.091x elapsed=0:00:15.16    \nframe=   72 fps=4.6 q=54.0 size=       1KiB time=00:00:01.44 bitrate=   3.5kbits/s speed=0.0917x elapsed=0:00:15.70    \nframe=   75 fps=4.6 q=54.0 size=       1KiB time=00:00:01.48 bitrate=   3.4kbits/s speed=0.091x elapsed=0:00:16.26    \nframe=   77 fps=4.6 q=54.0 size=       1KiB time=00:00:01.54 bitrate=   3.3kbits/s speed=0.0912x elapsed=0:00:16.88    \nframe=   80 fps=4.6 q=54.0 size=       1KiB time=00:00:01.60 bitrate=   3.2kbits/s speed=0.0916x elapsed=0:00:17.46    \nframe=   83 fps=4.6 q=54.0 size=       1KiB time=00:00:01.66 bitrate=   3.1kbits/s speed=0.0921x elapsed=0:00:18.02    \nframe=   86 fps=4.6 q=54.0 size=       1KiB time=00:00:01.72 bitrate=   2.9kbits/s speed=0.0926x elapsed=0:00:18.56    \nframe=   87 fps=4.6 q=54.0 size=       1KiB time=00:00:01.74 bitrate=   2.9kbits/s speed=0.091x elapsed=0:00:19.11    \nframe=   91 fps=4.6 q=54.0 size=       1KiB time=00:00:01.82 bitrate=   2.8kbits/s speed=0.0924x elapsed=0:00:19.69    \nframe=   93 fps=4.6 q=55.0 size=       1KiB time=00:00:01.86 bitrate=   2.7kbits/s speed=0.0916x elapsed=0:00:20.29    \nframe=   95 fps=4.5 q=55.0 size=       1KiB time=00:00:01.90 bitrate=   2.7kbits/s speed=0.091x elapsed=0:00:20.88    \nframe=   98 fps=4.6 q=55.0 size=       1KiB time=00:00:01.96 bitrate=   2.6kbits/s speed=0.0914x elapsed=0:00:21.45    \nframe=  100 fps=4.5 q=43.0 size=       1KiB time=00:00:02.00 bitrate=   2.5kbits/s speed=0.0909x elapsed=0:00:22.00    \nframe=  104 fps=4.6 q=56.0 size=       1KiB time=00:00:02.08 bitrate=   2.4kbits/s speed=0.0923x elapsed=0:00:22.52    \nframe=  106 fps=4.6 q=43.0 size=       1KiB time=00:00:02.12 bitrate=   2.4kbits/s speed=0.0919x elapsed=0:00:23.07    \nframe=  108 fps=4.6 q=56.0 size=       1KiB time=00:00:02.16 bitrate=   2.3kbits/s speed=0.0912x elapsed=0:00:23.69    \nframe=  111 fps=4.6 q=56.0 size=       1KiB time=00:00:02.22 bitrate=   2.3kbits/s speed=0.0915x elapsed=0:00:24.25    \nframe=  112 fps=4.5 q=43.0 size=       1KiB time=00:00:02.24 bitrate=   2.3kbits/s speed=0.0901x elapsed=0:00:24.84    \nframe=  115 fps=4.5 q=56.0 size=       1KiB time=00:00:02.30 bitrate=   2.2kbits/s speed=0.0905x elapsed=0:00:25.40    \nframe=  117 fps=4.5 q=56.0 size=       1KiB time=00:00:02.34 bitrate=   2.2kbits/s speed=0.0901x elapsed=0:00:25.97    \nframe=  120 fps=4.5 q=56.0 size=       1KiB time=00:00:02.40 bitrate=   2.1kbits/s speed=0.0905x elapsed=0:00:26.52    \nframe=  123 fps=4.5 q=56.0 size=       1KiB time=00:00:02.46 bitrate=   2.1kbits/s speed=0.0909x elapsed=0:00:27.07    \nframe=  125 fps=4.5 q=57.0 size=       1KiB time=00:00:02.50 bitrate=   2.0kbits/s speed=0.0904x elapsed=0:00:27.65    \nframe=  128 fps=4.5 q=57.0 size=       1KiB time=00:00:02.56 bitrate=   2.0kbits/s speed=0.0906x elapsed=0:00:28.27    \nframe=  130 fps=4.5 q=56.0 size=     768KiB time=00:00:02.60 bitrate=2419.8kbits/s speed=0.0902x elapsed=0:00:28.82    \nframe=  134 fps=4.6 q=56.0 size=     768KiB time=00:00:02.68 bitrate=2347.6kbits/s speed=0.0913x elapsed=0:00:29.36    \nframe=  136 fps=4.5 q=56.0 size=     768KiB time=00:00:02.72 bitrate=2313.0kbits/s speed=0.0907x elapsed=0:00:29.98    \nframe=  138 fps=4.5 q=55.0 size=     768KiB time=00:00:02.76 bitrate=2279.5kbits/s speed=0.0903x elapsed=0:00:30.56    \nframe=  140 fps=4.5 q=55.0 size=     768KiB time=00:00:02.80 bitrate=2246.9kbits/s speed=0.09x elapsed=0:00:31.09    \nframe=  143 fps=4.5 q=54.0 size=     768KiB time=00:00:02.86 bitrate=2199.8kbits/s speed=0.0902x elapsed=0:00:31.69    \nframe=  146 fps=4.5 q=55.0 size=     768KiB time=00:00:02.92 bitrate=2154.6kbits/s speed=0.0905x elapsed=0:00:32.26    \nframe=  148 fps=4.5 q=55.0 size=     768KiB time=00:00:02.96 bitrate=2125.5kbits/s speed=0.0901x elapsed=0:00:32.83    \nframe=  152 fps=4.6 q=56.0 size=     768KiB time=00:00:03.04 bitrate=2069.6kbits/s speed=0.0911x elapsed=0:00:33.38    \nframe=  153 fps=4.5 q=43.0 size=     768KiB time=00:00:03.06 bitrate=2056.0kbits/s speed=0.0901x elapsed=0:00:33.97    \nframe=  156 fps=4.5 q=55.0 size=     768KiB time=00:00:03.12 bitrate=2016.5kbits/s speed=0.0903x elapsed=0:00:34.55    \nframe=  158 fps=4.5 q=56.0 size=     768KiB time=00:00:03.16 bitrate=1991.0kbits/s speed=0.0899x elapsed=0:00:35.14    \nframe=  161 fps=4.5 q=55.0 size=     768KiB time=00:00:03.22 bitrate=1953.9kbits/s speed=0.0901x elapsed=0:00:35.72    \nframe=  164 fps=4.5 q=55.0 size=     768KiB time=00:00:03.28 bitrate=1918.1kbits/s speed=0.0904x elapsed=0:00:36.28    \nframe=  167 fps=4.5 q=55.0 size=     768KiB time=00:00:03.32 bitrate=1895.0kbits/s speed=0.0901x elapsed=0:00:36.84    \nframe=  170 fps=4.5 q=55.0 size=     768KiB time=00:00:03.40 bitrate=1850.4kbits/s speed=0.0909x elapsed=0:00:37.39    \nframe=  170 fps=4.5 q=55.0 size=     768KiB time=00:00:03.40 bitrate=1850.4kbits/s speed=0.0896x elapsed=0:00:37.96    \nframe=  174 fps=4.5 q=54.0 size=     768KiB time=00:00:03.46 bitrate=1818.3kbits/s speed=0.0899x elapsed=0:00:38.49    \nframe=  176 fps=4.5 q=54.0 size=     768KiB time=00:00:03.52 bitrate=1787.3kbits/s speed=0.09x elapsed=0:00:39.10    \nframe=  178 fps=4.5 q=53.0 size=     768KiB time=00:00:03.56 bitrate=1767.3kbits/s speed=0.0898x elapsed=0:00:39.63    \nframe=  182 fps=4.5 q=53.0 size=     768KiB time=00:00:03.64 bitrate=1728.4kbits/s speed=0.0906x elapsed=0:00:40.18    \nframe=  184 fps=4.5 q=53.0 size=     768KiB time=00:00:03.68 bitrate=1709.6kbits/s speed=0.0903x elapsed=0:00:40.75    \nframe=  186 fps=4.5 q=53.0 size=     768KiB time=00:00:03.72 bitrate=1691.3kbits/s speed=0.0901x elapsed=0:00:41.30    \nframe=  188 fps=4.5 q=54.0 size=     768KiB time=00:00:03.76 bitrate=1673.3kbits/s speed=0.0897x elapsed=0:00:41.90    \nframe=  190 fps=4.5 q=54.0 size=     768KiB time=00:00:03.80 bitrate=1655.6kbits/s speed=0.0894x elapsed=0:00:42.52    \nframe=  193 fps=4.5 q=55.0 size=     768KiB time=00:00:03.86 bitrate=1629.9kbits/s speed=0.0896x elapsed=0:00:43.06    \nframe=  195 fps=4.5 q=43.0 size=     768KiB time=00:00:03.90 bitrate=1613.2kbits/s speed=0.0895x elapsed=0:00:43.58    \nframe=  199 fps=4.5 q=56.0 size=     768KiB time=00:00:03.98 bitrate=1580.8kbits/s speed=0.0902x elapsed=0:00:44.10    \nframe=  200 fps=4.5 q=55.0 size=     768KiB time=00:00:04.00 bitrate=1572.9kbits/s speed=0.0896x elapsed=0:00:44.65    \nframe=  203 fps=4.5 q=55.0 size=     768KiB time=00:00:04.06 bitrate=1549.6kbits/s speed=0.0898x elapsed=0:00:45.20    \nframe=  206 fps=4.5 q=55.0 size=     768KiB time=00:00:04.10 bitrate=1534.5kbits/s speed=0.0895x elapsed=0:00:45.82    \nframe=  206 fps=4.4 q=55.0 size=     768KiB time=00:00:04.12 bitrate=1527.1kbits/s speed=0.0887x elapsed=0:00:46.42    \nframe=  210 fps=4.5 q=55.0 size=     768KiB time=00:00:04.18 bitrate=1505.1kbits/s speed=0.0891x elapsed=0:00:46.93    \nframe=  212 fps=4.5 q=56.0 size=     768KiB time=00:00:04.24 bitrate=1483.8kbits/s speed=0.0892x elapsed=0:00:47.51    \nframe=  214 fps=4.5 q=53.0 size=     768KiB time=00:00:04.28 bitrate=1470.0kbits/s speed=0.089x elapsed=0:00:48.07    \nframe=  217 fps=4.5 q=54.0 size=     768KiB time=00:00:04.34 bitrate=1449.6kbits/s speed=0.0893x elapsed=0:00:48.61    \nframe=  219 fps=4.5 q=54.0 size=     768KiB time=00:00:04.38 bitrate=1436.4kbits/s speed=0.089x elapsed=0:00:49.19    \nframe=  222 fps=4.5 q=55.0 size=     768KiB time=00:00:04.44 bitrate=1417.0kbits/s speed=0.0892x elapsed=0:00:49.76    \nframe=  223 fps=4.4 q=55.0 size=     768KiB time=00:00:04.46 bitrate=1410.6kbits/s speed=0.0886x elapsed=0:00:50.33    \nframe=  226 fps=4.4 q=57.0 size=     768KiB time=00:00:04.52 bitrate=1391.9kbits/s speed=0.0889x elapsed=0:00:50.87    \nframe=  226 fps=4.4 q=57.0 size=     768KiB time=00:00:04.52 bitrate=1391.9kbits/s speed=0.0879x elapsed=0:00:51.42    \nframe=  226 fps=4.3 q=57.0 size=     768KiB time=00:00:04.52 bitrate=1391.9kbits/s speed=0.0869x elapsed=0:00:51.99    \nframe=  226 fps=4.3 q=57.0 size=     768KiB time=00:00:04.52 bitrate=1391.9kbits/s speed=0.0861x elapsed=0:00:52.52    \nframe=  226 fps=4.3 q=57.0 size=     768KiB time=00:00:04.52 bitrate=1391.9kbits/s speed=0.0852x elapsed=0:00:53.06    \nframe=  226 fps=4.2 q=57.0 size=     768KiB time=00:00:04.52 bitrate=1391.9kbits/s speed=0.0844x elapsed=0:00:53.57    \nframe=  226 fps=4.2 q=57.0 size=     768KiB time=00:00:04.52 bitrate=1391.9kbits/s speed=0.0835x elapsed=0:00:54.11    \nframe=  226 fps=4.1 q=57.0 size=     768KiB time=00:00:04.52 bitrate=1391.9kbits/s speed=0.0827x elapsed=0:00:54.68    \nframe=  226 fps=4.1 q=57.0 size=     768KiB time=00:00:04.52 bitrate=1391.9kbits/s speed=0.0818x elapsed=0:00:55.23    \n[out#0/webm @ 000001ac64e392c0] video:1618KiB audio:0KiB subtitle:0KiB other streams:0KiB global headers:0KiB muxing overhead: 0.149630%\nframe=  250 fps=4.5 q=58.0 Lsize=    1620KiB time=00:00:05.00 bitrate=2654.8kbits/s speed=0.0898x elapsed=0:00:55.68    \n",
  "seconds": 56.04144358634949,
  "probe_out": {}
}